<svg id="svg" xmlns="http://www.w3.org/2000/svg" xmlns:xlink="http://www.w3.org/1999/xlink" width="400" height="400" viewBox="0, 0, 400,400"><g id="svgg"><path id="path0" d="M278.493 36.707 C 277.520 37.680,276.277 38.078,274.983 37.831 C 272.391 37.335,269.486 38.903,269.775 40.642 C 269.940 41.638,269.522 41.934,268.205 41.751 C 265.982 41.442,264.018 44.894,265.442 46.609 C 266.104 47.407,265.937 47.905,264.759 48.640 C 262.651 49.957,262.706 53.284,264.846 53.844 C 266.257 54.213,266.353 54.496,265.520 55.831 C 264.158 58.012,265.104 59.839,267.753 60.142 C 269.353 60.326,269.935 60.793,269.773 61.765 C 269.376 64.153,274.156 66.069,276.107 64.303 C 277.609 62.944,277.686 62.957,278.128 64.645 C 278.698 66.826,283.491 67.168,284.643 65.109 C 285.205 64.106,285.715 64.005,286.933 64.657 C 289.016 65.772,292.400 64.111,292.400 61.974 C 292.400 60.862,293.029 60.327,294.541 60.153 C 297.703 59.787,298.963 57.948,297.305 56.116 C 296.071 54.753,296.115 54.605,297.994 53.748 C 300.677 52.526,300.582 49.959,297.800 48.487 C 295.907 47.486,295.795 47.247,297.000 46.776 C 299.620 45.752,297.324 41.600,294.137 41.600 C 293.338 41.600,292.800 40.963,292.800 40.015 C 292.800 38.217,289.890 37.153,286.975 37.885 C 285.691 38.207,284.858 37.877,284.168 36.771 C 282.927 34.785,280.443 34.757,278.493 36.707 M288.480 45.920 C 293.023 50.463,291.872 55.708,285.677 58.690 C 276.475 63.118,267.947 53.472,274.483 46.028 C 278.104 41.904,284.415 41.855,288.480 45.920 M323.400 47.730 C 322.850 47.952,322.400 48.823,322.400 49.667 C 322.400 51.559,321.610 51.590,318.528 49.822 C 315.068 47.836,309.950 50.098,310.744 53.262 C 311.435 56.013,310.678 57.005,308.698 55.945 C 305.343 54.150,300.177 60.692,303.487 62.545 C 305.404 63.618,305.091 65.353,302.880 65.908 C 301.664 66.214,300.637 67.316,300.080 68.915 C 298.930 72.213,298.798 71.913,302.000 73.252 C 304.814 74.427,305.485 75.483,304.000 76.400 C 300.711 78.433,304.656 84.309,308.759 83.488 C 311.330 82.974,311.369 83.009,310.852 85.365 C 309.989 89.292,316.602 92.330,319.200 89.200 C 320.620 87.488,321.529 87.710,322.392 89.978 C 323.789 93.652,330.115 93.801,331.836 90.200 C 333.029 87.703,333.774 87.481,335.200 89.200 C 337.616 92.111,344.397 89.230,343.606 85.628 C 343.004 82.887,344.126 81.983,346.532 83.271 C 349.676 84.953,353.549 79.082,350.800 76.800 C 348.906 75.228,349.391 73.773,352.000 73.200 C 355.670 72.394,354.239 65.600,350.400 65.600 C 349.138 65.600,349.468 63.200,350.800 62.689 C 354.293 61.349,350.653 55.788,346.517 56.147 C 343.853 56.378,343.618 56.234,343.812 54.477 C 344.241 50.595,339.059 47.688,335.790 49.977 C 333.418 51.638,332.885 51.529,332.000 49.200 C 331.250 47.228,326.610 46.435,323.400 47.730 M333.805 57.800 C 350.229 67.009,341.792 86.312,323.096 82.303 C 309.599 79.408,308.103 63.583,320.806 58.074 C 324.223 56.593,331.382 56.441,333.805 57.800 M276.229 84.762 C 274.759 88.504,271.741 89.208,269.200 86.400 C 265.453 82.259,255.469 87.167,257.866 91.971 C 259.546 95.340,256.909 97.175,252.383 95.786 C 246.973 94.125,242.241 102.139,246.849 105.159 C 249.787 107.084,249.201 109.720,245.600 110.778 C 241.306 112.039,240.800 112.626,240.800 116.349 C 240.800 120.218,241.554 121.134,245.599 122.178 C 249.098 123.082,249.606 125.135,246.865 127.292 C 241.798 131.278,247.980 139.397,253.996 136.656 C 256.843 135.359,259.869 138.055,258.480 140.650 C 256.866 143.667,257.476 144.816,261.747 146.795 C 265.869 148.705,270.400 147.962,270.400 145.377 C 270.400 143.131,275.524 145.370,276.405 148.000 L 277.343 150.800 282.766 150.800 L 288.190 150.800 289.095 148.000 C 290.217 144.530,293.380 143.787,296.129 146.349 C 298.452 148.512,301.520 148.440,304.882 146.142 C 307.590 144.290,307.703 143.910,306.745 139.871 C 306.027 136.842,308.564 135.534,312.583 136.861 C 318.126 138.690,322.886 131.349,318.423 127.856 C 315.225 125.353,315.817 122.657,319.727 121.923 C 326.323 120.686,326.884 111.200,320.361 111.200 C 315.819 111.200,315.663 104.228,320.200 104.027 C 321.768 103.957,320.508 100.561,317.973 98.027 C 314.866 94.919,314.636 94.846,311.626 95.990 C 308.220 97.285,304.297 93.394,307.200 91.600 C 308.931 90.530,307.878 88.226,304.891 86.547 C 301.074 84.402,300.834 84.400,296.436 86.467 C 291.883 88.607,290.362 88.257,289.202 84.800 C 288.266 82.008,288.247 81.999,282.882 81.762 L 277.501 81.525 276.229 84.762 M94.089 89.602 C 83.764 93.634,83.737 93.744,83.662 130.800 L 83.600 162.000 111.670 162.210 L 139.740 162.420 140.576 164.210 C 141.035 165.195,142.319 168.520,143.430 171.600 C 144.541 174.680,146.079 178.927,146.848 181.038 C 148.543 185.690,149.944 186.542,154.807 185.875 C 159.204 185.272,158.992 185.674,161.939 172.400 C 163.811 163.967,164.975 159.193,166.113 155.285 C 166.717 153.213,167.594 155.305,169.041 162.266 C 169.833 166.080,170.814 170.640,171.220 172.400 C 171.898 175.336,173.189 182.451,175.282 194.782 C 176.232 200.382,176.675 200.772,182.102 200.788 C 186.556 200.801,187.509 200.124,188.286 196.400 C 188.561 195.080,189.140 192.380,189.572 190.400 C 191.914 179.678,194.611 167.116,195.327 163.600 C 196.331 158.668,196.298 158.698,198.333 160.733 C 199.899 162.299,200.875 162.400,214.407 162.400 L 228.814 162.400 232.127 164.800 C 241.293 171.440,255.963 163.486,251.564 154.262 C 248.307 147.432,238.333 145.479,231.559 150.343 L 228.073 152.847 217.522 152.623 C 209.103 152.445,206.850 152.158,206.371 151.200 C 206.041 150.540,204.549 146.760,203.056 142.800 L 200.340 135.600 196.834 135.347 C 189.158 134.794,189.450 134.307,185.524 154.193 C 182.651 168.743,182.107 170.090,181.322 164.600 C 180.798 160.931,178.795 150.381,177.639 145.200 C 176.699 140.986,174.410 129.139,173.852 125.600 C 173.207 121.509,172.295 120.799,167.702 120.812 C 161.801 120.830,161.890 120.701,158.865 133.600 C 158.194 136.460,156.888 142.032,155.963 145.983 C 155.038 149.933,154.078 154.883,153.829 156.983 C 153.266 161.738,151.788 161.920,150.438 157.400 C 149.019 152.647,150.027 152.826,124.600 152.812 L 101.600 152.800 101.425 133.200 C 101.329 122.420,101.239 111.244,101.225 108.365 L 101.200 103.129 168.890 103.182 C 234.821 103.233,239.200 103.123,239.200 101.410 C 239.200 100.193,244.790 92.638,246.945 90.943 C 247.974 90.134,248.611 89.141,248.360 88.736 C 247.331 87.070,98.431 87.906,94.089 89.602 M287.090 96.038 C 319.523 101.301,310.543 141.352,277.963 136.738 C 249.534 132.712,252.450 99.464,281.600 95.270 C 281.820 95.238,284.290 95.584,287.090 96.038 M275.289 101.092 C 274.636 101.880,274.892 102.583,276.321 103.925 C 277.622 105.148,278.082 106.261,277.781 107.455 C 276.835 111.201,273.010 111.431,270.056 107.920 C 268.790 106.417,267.503 105.620,266.785 105.895 C 262.987 107.352,268.678 114.778,274.278 115.673 C 277.906 116.253,280.655 118.400,277.771 118.400 C 275.767 118.400,267.200 126.351,267.200 128.211 C 267.200 130.199,270.795 132.275,273.194 131.673 C 274.297 131.396,275.200 130.661,275.200 130.039 C 275.200 129.417,275.920 128.679,276.800 128.400 C 277.680 128.121,278.400 127.376,278.400 126.746 C 278.400 126.116,278.916 125.600,279.546 125.600 C 280.831 125.600,281.973 122.851,281.204 121.607 C 279.668 119.122,282.809 121.559,287.895 126.800 C 294.026 133.117,295.757 133.843,298.400 131.200 C 300.599 129.001,300.706 129.211,293.568 121.656 C 286.371 114.037,286.338 113.655,292.515 109.459 C 296.397 106.822,298.337 103.617,296.914 102.194 C 295.583 100.863,290.369 103.666,289.051 106.421 C 288.519 107.532,287.116 109.332,285.933 110.421 L 283.781 112.400 284.225 110.000 C 284.584 108.059,282.932 102.400,282.007 102.400 C 281.890 102.400,280.527 101.870,278.977 101.222 C 276.663 100.255,276.003 100.232,275.289 101.092 M296.139 129.781 C 295.699 130.221,294.910 130.315,294.384 129.990 C 293.659 129.542,293.681 129.245,294.476 128.753 C 295.841 127.909,297.182 128.738,296.139 129.781 M310.100 148.680 C 308.394 149.846,305.154 151.541,302.900 152.447 L 298.800 154.094 298.270 166.047 C 297.978 172.621,297.736 185.380,297.732 194.400 L 297.725 210.800 199.662 211.003 L 101.600 211.206 101.600 190.889 C 101.600 167.437,102.566 169.600,92.095 169.600 C 82.562 169.600,83.200 167.961,83.200 192.462 C 83.200 228.077,80.368 226.400,140.501 226.400 L 183.200 226.400 183.200 229.200 L 183.200 232.000 175.923 232.000 C 166.971 232.000,164.604 233.136,162.641 238.372 C 161.894 240.368,160.904 242.258,160.441 242.574 C 159.907 242.938,160.265 243.814,161.422 244.974 L 163.243 246.800 200.222 247.001 C 244.463 247.241,244.161 247.304,239.880 238.732 C 237.012 232.989,235.043 232.000,226.477 232.000 L 219.200 232.000 219.200 229.200 L 219.200 226.400 259.970 226.400 C 320.294 226.400,316.000 229.985,316.000 179.626 C 316.000 142.278,316.399 144.371,310.100 148.680 M203.755 253.200 C 204.278 256.424,202.850 257.103,202.071 254.000 C 201.388 251.276,200.303 251.485,199.709 254.453 C 199.415 255.925,198.873 256.693,198.355 256.372 C 197.880 256.078,197.684 255.335,197.920 254.719 C 198.171 254.067,197.849 253.600,197.150 253.600 C 195.592 253.600,194.898 255.486,195.529 258.002 C 196.025 259.976,200.800 261.130,200.800 259.275 C 200.800 258.876,201.522 258.739,202.404 258.969 C 204.947 259.634,206.400 257.792,206.400 253.902 C 206.400 250.971,206.147 250.400,204.850 250.400 C 203.526 250.400,203.367 250.807,203.755 253.200 M201.169 261.894 C 197.018 263.651,196.457 264.171,196.991 265.773 C 197.483 267.248,207.338 263.305,207.037 261.755 C 206.691 259.969,205.663 259.993,201.169 261.894 M226.189 271.400 C 224.971 272.325,224.987 272.732,226.410 276.800 C 229.331 285.157,228.482 285.855,215.852 285.469 C 206.254 285.176,204.000 284.043,204.000 279.511 C 204.000 278.133,203.554 277.600,202.400 277.600 C 201.219 277.600,200.800 278.133,200.800 279.636 C 200.800 284.735,198.275 285.600,183.389 285.600 C 168.173 285.600,167.698 285.450,165.678 279.988 C 164.298 276.256,163.467 275.604,161.600 276.785 C 160.552 277.448,160.629 278.183,162.200 282.572 C 164.406 288.733,164.446 290.858,162.422 294.179 C 160.273 297.703,157.357 298.364,152.600 296.405 C 150.855 295.687,150.583 299.292,152.276 300.697 C 157.347 304.906,165.545 300.367,167.163 292.455 L 167.666 290.000 183.472 289.888 C 197.219 289.791,199.477 289.597,200.804 288.396 C 202.209 287.125,202.432 287.118,203.622 288.308 C 204.333 289.018,205.519 289.618,206.257 289.640 C 230.051 290.358,231.567 289.872,230.969 281.714 C 230.275 272.245,228.922 269.325,226.189 271.400 M243.674 271.447 C 242.303 272.450,242.313 272.727,243.921 277.932 C 247.396 289.185,244.458 296.449,236.669 295.862 C 232.398 295.540,231.650 298.035,235.468 299.865 C 244.215 304.058,251.164 293.102,248.361 279.536 C 246.543 270.730,245.980 269.760,243.674 271.447 M197.632 297.962 C 196.182 299.709,197.367 302.400,199.587 302.400 C 200.621 302.400,201.649 301.950,201.872 301.400 C 202.189 300.621,202.445 300.638,203.035 301.479 C 204.293 303.272,206.772 302.229,207.054 299.789 C 207.349 297.231,205.451 296.064,203.556 297.637 C 202.629 298.406,202.108 298.428,201.406 297.726 C 200.156 296.476,198.795 296.561,197.632 297.962 M224.860 297.927 C 223.343 299.756,224.551 302.400,226.905 302.400 C 228.675 302.400,228.873 302.105,228.651 299.807 C 228.372 296.928,226.472 295.986,224.860 297.927 M132.200 312.531 L 129.600 312.901 129.600 326.051 L 129.600 339.200 132.400 339.200 L 135.200 339.200 135.200 333.600 L 135.200 328.000 137.847 328.000 C 141.583 328.000,143.108 329.423,144.735 334.431 C 146.073 338.551,146.317 338.814,149.015 339.045 L 151.877 339.289 149.980 333.845 C 148.937 330.850,147.559 328.063,146.917 327.651 C 145.955 327.034,146.168 326.512,148.122 324.686 C 155.691 317.615,146.385 310.512,132.200 312.531 M156.800 325.600 L 156.800 339.200 166.400 339.200 C 174.400 339.200,176.000 339.000,176.000 338.000 C 176.000 337.027,174.711 336.800,169.200 336.800 L 162.400 336.800 162.400 332.000 L 162.400 327.200 168.400 327.200 C 173.867 327.200,174.400 327.058,174.400 325.600 C 174.400 324.142,173.867 324.000,168.400 324.000 L 162.400 324.000 162.400 319.600 L 162.400 315.200 168.800 315.200 C 174.667 315.200,175.200 315.067,175.200 313.600 C 175.200 312.093,174.667 312.000,166.000 312.000 L 156.800 312.000 156.800 325.600 M184.200 312.535 L 181.600 312.901 181.600 326.051 L 181.600 339.200 184.400 339.200 L 187.200 339.200 187.200 334.000 L 187.200 328.800 191.640 328.800 C 200.228 328.800,204.618 323.512,201.903 316.436 C 200.785 313.521,191.581 311.493,184.200 312.535 M213.362 312.556 C 212.754 313.569,203.200 338.244,203.200 338.802 C 203.200 341.357,208.508 338.410,209.686 335.200 L 211.008 331.600 216.211 331.366 L 221.415 331.131 222.865 335.166 C 224.210 338.904,224.510 339.200,226.958 339.200 C 230.275 339.200,230.462 340.261,224.487 325.200 L 219.410 312.400 216.579 312.156 C 215.022 312.022,213.575 312.202,213.362 312.556 M235.200 325.600 L 235.200 339.200 238.000 339.200 L 240.800 339.200 240.800 325.600 L 240.800 312.000 238.000 312.000 L 235.200 312.000 235.200 325.600 M251.400 312.531 L 248.800 312.901 248.800 326.051 L 248.800 339.200 251.600 339.200 L 254.400 339.200 254.400 333.600 L 254.400 328.000 257.047 328.000 C 260.783 328.000,262.308 329.423,263.935 334.431 C 265.273 338.551,265.517 338.814,268.215 339.045 L 271.077 339.289 269.180 333.845 C 268.137 330.850,266.759 328.063,266.117 327.651 C 265.155 327.034,265.368 326.512,267.322 324.686 C 274.891 317.615,265.585 310.512,251.400 312.531 M142.782 316.137 C 148.031 318.529,144.827 324.800,138.355 324.800 L 135.200 324.800 135.200 320.000 L 135.200 315.200 137.962 315.200 C 139.482 315.200,141.650 315.622,142.782 316.137 M195.492 316.858 C 200.229 320.584,196.321 326.400,189.081 326.400 C 187.286 326.400,187.200 326.145,187.200 320.800 L 187.200 315.200 190.292 315.200 C 192.209 315.200,194.185 315.830,195.492 316.858 M261.982 316.137 C 267.231 318.529,264.027 324.800,257.555 324.800 L 254.400 324.800 254.400 320.000 L 254.400 315.200 257.162 315.200 C 258.682 315.200,260.850 315.622,261.982 316.137 M219.538 326.203 C 220.072 327.887,219.877 328.000,216.454 328.000 C 212.433 328.000,212.313 327.809,213.882 323.898 C 214.477 322.414,215.236 320.480,215.569 319.600 C 216.180 317.983,217.766 320.623,219.538 326.203 " stroke="none" fill="#000000" fill-rule="evenodd"></path></g></svg>